<!-- <svg width="32" height="32" viewBox="0 0 32 32" fill="none" xmlns="http://www.w3.org/2000/svg">
<path d="M16 0C7.1776 0 0 7.1776 0 16C0 24.8224 7.1776 32 16 32C24.8224 32 32 24.8224 32 16C32 7.1776 24.8224 0 16 0ZM16 28.8C8.9424 28.8 3.2 23.0576 3.2 16C3.2 8.9424 8.9424 3.2 16 3.2C23.0576 3.2 28.8 8.9424 28.8 16C28.8 23.0576 23.0576 28.8 16 28.8Z" fill="#60626E"/>

</svg> -->

<svg width="12" height="20" viewBox="0 0 12 20" fill="none" xmlns="http://www.w3.org/2000/svg">
<path d="M6.00076 0C4.40988 0.00220508 2.88474 0.693703 1.75981 1.92284C0.634888 3.15197 0.00201812 4.81841 0 6.55667H3.05072C3.05072 4.77833 4.37473 3.33333 6.00076 3.33333C7.6268 3.33333 8.95081 4.77833 8.95081 6.55667C8.95081 7.55333 8.21711 8.27667 7.09597 9.26667C6.72971 9.58016 6.37794 9.91335 6.04195 10.265C4.51964 11.9267 4.4754 13.6917 4.4754 13.8883V15H7.52612L7.5246 13.945C7.52612 13.9183 7.57493 13.3017 8.19728 12.6233C8.42608 12.3733 8.71438 12.1233 9.01335 11.86C10.2016 10.8083 12 9.22 12 6.55667C11.9988 4.81843 11.3664 3.15173 10.2416 1.92245C9.11685 0.693175 7.59163 0.00176555 6.00076 0ZM4.4754 16.6667H7.52612V20H4.4754V16.6667Z" fill="#60626E"/>
</svg>
