<svg width="25" height="24" viewBox="0 0 25 24" fill="none" xmlns="http://www.w3.org/2000/svg">
<path d="M18.7456 11.9189C21.6282 11.9189 23.965 10.5939 23.965 8.95944C23.965 7.32495 21.6282 5.99994 18.7456 5.99994C15.863 5.99994 13.5262 7.32495 13.5262 8.95944C13.5262 10.5939 15.863 11.9189 18.7456 11.9189Z" fill="#60626E"/>
<path fill-rule="evenodd" clip-rule="evenodd" d="M18.8252 13.6215C15.0921 13.6215 13.6058 12.06 13.6058 11.1555V15.03C13.6058 16.665 15.9428 17.988 18.8252 17.988C21.7107 17.988 24.0476 16.665 24.0476 15.03V11.2485C24.0476 12.1545 22.5598 13.6215 18.8252 13.6215Z" fill="#60626E"/>
<path fill-rule="evenodd" clip-rule="evenodd" d="M18.8252 19.6079C15.4859 19.6079 13.6058 18.1064 13.6058 17.2019V21.0404C13.6058 22.6754 15.9428 23.9999 18.8252 23.9999C21.7107 23.9999 24.0476 22.6754 24.0476 21.0404V17.1554C24.0476 18.0599 22.166 19.6079 18.8252 19.6079Z" fill="#60626E"/>
<path d="M5.9167 5.919C9.18441 5.919 11.8334 4.59398 11.8334 2.9595C11.8334 1.32501 9.18441 0 5.9167 0C2.649 0 0 1.32501 0 2.9595C0 4.59398 2.649 5.919 5.9167 5.919Z" fill="#60626E"/>
<path fill-rule="evenodd" clip-rule="evenodd" d="M6.10506 7.62152C1.87455 7.62152 0.188354 6.06002 0.188354 5.15552V9.03001C0.188354 10.665 2.83787 11.988 6.10506 11.988C9.37525 11.988 12.0233 10.665 12.0233 9.03001V5.24852C12.0233 6.15452 10.3356 7.62152 6.10506 7.62152Z" fill="#60626E"/>
<path fill-rule="evenodd" clip-rule="evenodd" d="M6.10506 13.608C2.31939 13.608 0.188354 12.1065 0.188354 11.202V15.0405C0.188354 16.6755 2.83787 18 6.10506 18C9.37525 18 12.0233 16.6755 12.0233 15.0405V11.1555C12.0233 12.06 9.88922 13.608 6.10506 13.608Z" fill="#60626E"/>
<path fill-rule="evenodd" clip-rule="evenodd" d="M6.10506 19.6079C2.31939 19.6079 0.188354 18.1064 0.188354 17.2019V21.0404C0.188354 22.6754 2.83787 23.9999 6.10506 23.9999C9.37525 23.9999 12.0233 22.6754 12.0233 21.0404V17.1554C12.0233 18.0599 9.88922 19.6079 6.10506 19.6079Z" fill="#60626E"/>
</svg>
