<svg width="33" height="25" viewBox="0 0 33 25" fill="none" xmlns="http://www.w3.org/2000/svg">
<path opacity="0.4" d="M4.95 10.5309C6.77016 10.5309 8.25 8.95675 8.25 7.0206C8.25 5.08445 6.77016 3.5103 4.95 3.5103C3.12984 3.5103 1.65 5.08445 1.65 7.0206C1.65 8.95675 3.12984 10.5309 4.95 10.5309ZM28.05 10.5309C29.8702 10.5309 31.35 8.95675 31.35 7.0206C31.35 5.08445 29.8702 3.5103 28.05 3.5103C26.2298 3.5103 24.75 5.08445 24.75 7.0206C24.75 8.95675 26.2298 10.5309 28.05 10.5309ZM29.7 12.2861H26.4C25.4925 12.2861 24.6727 12.6755 24.0745 13.3062C26.1525 14.5184 27.6272 16.7068 27.9469 19.3067H31.35C32.2627 19.3067 33 18.5223 33 17.5515V15.7964C33 13.8602 31.5202 12.2861 29.7 12.2861ZM16.5 12.2861C19.6917 12.2861 22.275 9.53815 22.275 6.14303C22.275 2.74791 19.6917 0 16.5 0C13.3083 0 10.725 2.74791 10.725 6.14303C10.725 9.53815 13.3083 12.2861 16.5 12.2861ZM20.46 14.0412H20.032C18.9595 14.5897 17.7684 14.9188 16.5 14.9188C15.2316 14.9188 14.0456 14.5897 12.968 14.0412H12.54C9.26062 14.0412 6.6 16.8714 6.6 20.3598V21.9394C6.6 23.3929 7.70859 24.5721 9.075 24.5721H23.925C25.2914 24.5721 26.4 23.3929 26.4 21.9394V20.3598C26.4 16.8714 23.7394 14.0412 20.46 14.0412ZM8.92547 13.3062C8.32734 12.6755 7.5075 12.2861 6.6 12.2861H3.3C1.47984 12.2861 0 13.8602 0 15.7964V17.5515C0 18.5223 0.737344 19.3067 1.65 19.3067H5.04797C5.37281 16.7068 6.8475 14.5184 8.92547 13.3062Z" fill="#9FA2B4"/>
</svg>
